<?xml version="1.0" encoding="UTF-8" standalone="no"?>
<!-- Created with Inkscape (http://www.inkscape.org/) -->

<svg
   width="125.41733mm"
   height="124.68504mm"
   viewBox="0 0 125.41733 124.68504"
   version="1.1"
   id="svg5"
   xml:space="preserve"
   inkscape:export-filename="bitmap.png"
   inkscape:export-xdpi="96"
   inkscape:export-ydpi="96"
   xmlns:inkscape="http://www.inkscape.org/namespaces/inkscape"
   xmlns:sodipodi="http://sodipodi.sourceforge.net/DTD/sodipodi-0.dtd"
   xmlns="http://www.w3.org/2000/svg"
   xmlns:svg="http://www.w3.org/2000/svg"><sodipodi:namedview
     id="namedview7"
     pagecolor="#ffffff"
     bordercolor="#000000"
     borderopacity="0.25"
     inkscape:showpageshadow="2"
     inkscape:pageopacity="0.0"
     inkscape:pagecheckerboard="0"
     inkscape:deskcolor="#d1d1d1"
     inkscape:document-units="mm"
     showgrid="false"
     inkscape:zoom="0.75277076"
     inkscape:cx="75.720263"
     inkscape:cy="349.37595"
     inkscape:window-width="1920"
     inkscape:window-height="1011"
     inkscape:window-x="0"
     inkscape:window-y="32"
     inkscape:window-maximized="1"
     inkscape:current-layer="layer1" /><defs
     id="defs2" /><g
     inkscape:label="Camada 1"
     inkscape:groupmode="layer"
     id="layer1"
     transform="translate(-1.6229108,-172.73365)"><path
       d="m 112.22082,206.25361 c 2.49013,5.38186 1.60576,11.44923 -2.58668,17.7468 -1.84345,2.76907 -5.79721,6.87231 -8.72155,9.05128 -3.604461,2.68573 -3.525411,2.88199 1.25195,3.10785 10.38816,0.4911 19.59995,3.94555 23.05085,8.64414 0.73355,0.99875 1.46295,2.3738 1.62091,3.05566 0.76599,3.3063 -0.67831,8.08579 -3.4507,11.41914 -4.44617,5.34576 -14.6833,8.62169 -26.175761,8.37633 -5.90624,-0.12608 -17.62858,-1.9948 -26.715575,-4.25887 -2.38171,-0.59343 -4.43838,-0.98706 -4.57037,-0.87477 -0.4115,0.35007 0.55986,1.20534 4.44546,3.91418 6.114085,4.26243 8.237305,6.12361 10.934535,9.58508 3.90064,5.00585 5.91579,10.04639 5.71539,14.29613 -0.12017,2.54862 -0.99929,4.08119 -3.12951,5.4557 -5.17564,3.33952 -11.887405,1.57368 -19.266065,-5.06883 -5.95545,-5.36128 -14.43776,-19.74377 -18.63606,-31.59898 -0.62385,-1.76169 -1.36998,-3.41138 -1.65804,-3.66595 -0.98391,-0.86951 -4.10377,1.32978 -14.89867,10.50258 -8.71896,7.40849 -9.95393,8.55349 -12.881242,11.94004 -3.86144,4.46717 -5.56085,6.82497 -8.3315604,11.55931 -2.21038,3.77693 -4.03265,5.71893 -5.46534,5.82447 -0.67684,0.0499 -0.83103,-0.0759 -1.0541,-0.85928 -0.72638001,-2.55122 3.86581,-10.96736 9.6266504,-17.64285 1.87234,-2.16963 4.07478,-4.22988 8.917432,-8.34177 6.65027,-5.64733 11.15512,-8.86785 17.72522,-12.67395 3.82996,-2.21872 4.16096,-2.48217 3.74019,-2.97679 -0.18104,-0.2128 -1.7178,-1.09494 -3.41505,-1.9603 -9.67386,-4.93236 -21.57539,-13.86523 -27.016542,-20.2777 -2.8414404,-3.34935 -5.0258404,-7.28367 -6.0190204,-10.84324 -1.3951,-5.0001 -0.59606,-8.7123 2.52154,-11.71474 1.62015,-1.56032 1.82483,-1.66522 3.4908204,-1.7887 3.33953,-0.24756 6.301852,0.82798 10.774102,3.9118 6.05888,4.17788 9.26001,8.81684 15.81176,22.91372 3.68811,7.93542 3.66956,7.90119 3.9943,7.37017 0.14183,-0.23191 0.17249,-3.47212 0.0682,-7.20052 -0.30753,-10.98967 -0.16746,-18.06082 0.53332,-26.92528 0.73174,-9.25569 1.3389,-12.19406 3.47892,-16.8362 2.82404,-6.12585 5.78145,-10.48633 8.94829,-13.1936 5.04048,-4.30903 8.96231,-4.59849 14.14097,-1.04386 2.76371,1.897 4.99109,5.39344 5.98309,9.392 0.976665,3.93678 1.069275,9.16303 0.248445,14.02206 -0.935235,5.53631 -1.943425,8.6327 -5.190055,15.93993 -1.53905,3.46398 -2.71057,6.40125 -2.60336,6.52727 0.10865,0.12776 1.01807,-0.58919 2.05526,-1.62029 10.703665,-10.64054 13.023095,-12.5354 18.048735,-14.7449 6.67931,-2.93655 11.57606,-4.07022 16.064591,-3.71923 4.45688,0.34859 7.05195,1.94129 8.59436,5.27496 z m -4.77424,1.89259 c -0.13305,0.11316 -0.21493,0.38225 -0.18237,0.59784 0.0328,0.21568 0.24006,0.23881 0.46051,0.0513 0.2204,-0.18749 0.30233,-0.45657 0.18238,-0.59784 -0.12027,-0.14137 -0.32751,-0.16444 -0.46054,-0.0513 z M 64.420774,176.51853 c -0.046,0.0391 -0.85303,3.71891 -1.79365,8.17747 -4.88619,23.16096 -7.97365,36.43345 -11.10599,47.74286 -1.98768,7.17651 -2.37908,8.91456 -1.91949,8.52358 0.23939,-0.20366 2.6609,-8.50655 4.3559,-14.93671 2.97372,-11.27986 11.16395,-48.85258 10.75407,-49.33438 -0.11407,-0.1341 -0.24491,-0.21188 -0.29084,-0.17283 z m 56.144606,74.01182 c -0.96999,0.0995 -1.78341,0.0512 -1.8076,-0.10747 -0.0241,-0.15864 -0.29489,-0.36457 -0.60161,-0.45752 -0.44609,-0.13502 -0.5441,-0.0663 -0.48995,0.3442 0.0497,0.37708 -2.21891,0.71583 -8.55023,1.27678 -22.078191,1.9561 -35.862116,2.7567 -49.466996,2.8732 -6.9075,0.0592 -8.84871,0.46527 -3.00892,0.6295 10.64396,0.29933 30.738585,-0.86542 58.958866,-3.41743 3.93397,-0.35575 7.39875,-0.73581 7.69951,-0.84458 0.91497,-0.33088 -0.69588,-0.50573 -2.73307,-0.29667 z M 61.030984,186.70149 c -0.60008,2.23069 -0.69178,3.40932 -0.1944,2.49777 0.46653,-0.85501 1.31163,-4.6427 1.04074,-4.66456 -0.14183,-0.0117 -0.52269,0.96362 -0.84632,2.16679 z m 50.328076,63.46921 c -1.0404,0.009 -1.89985,0.11847 -1.90988,0.24273 -0.0255,0.31906 5.78157,0.29254 6.1384,-0.028 0.16151,-0.14529 -0.29813,-0.25664 -1.02153,-0.24777 -0.72345,0.009 -2.1666,0.0238 -3.20699,0.033 z M 59.720844,191.59312 c -0.12408,0.10554 -0.22192,0.48789 -0.21759,0.84965 0.007,0.53345 0.0787,0.59759 0.38218,0.33944 0.2058,-0.17508 0.3857,-0.46103 0.39976,-0.63545 0.0363,-0.45178 -0.29825,-0.78006 -0.5644,-0.55364 z m 47.551416,58.85103 c -0.48835,0.27542 -0.4704,0.33479 0.13333,0.44041 0.82562,0.1444 1.3542,-0.19981 0.81145,-0.52846 -0.20919,-0.12667 -0.63431,-0.087 -0.94478,0.088 z m -2.14865,-0.004 c -0.19694,0.16753 -0.57222,0.18774 -0.834,0.0449 -0.26175,-0.14286 -0.61539,-0.14103 -0.78583,0.004 -0.17046,0.145 0.20774,0.3217 0.84041,0.39266 1.20365,0.13503 1.72663,-0.0536 1.35614,-0.48908 -0.12028,-0.14135 -0.37991,-0.11961 -0.57672,0.0476 z M 58.662674,196.03772 c -0.27031,0.22995 -0.34754,1.258 -0.11506,1.53127 0.10043,0.11807 0.30864,-0.10593 0.46263,-0.4978 0.27653,-0.70351 0.0514,-1.3729 -0.34755,-1.03349 z m -0.89692,3.1816 c -0.0712,0.22154 -0.0254,0.52564 0.10252,0.67597 0.145,0.17044 0.27589,0.0255 0.34773,-0.38504 0.12483,-0.7139 -0.23796,-0.94833 -0.45023,-0.2909 z m 40.626025,51.75422 c -0.0281,0.34832 1.913871,0.42528 2.333211,0.0925 0.14204,-0.11296 -0.31887,-0.25169 -1.024491,-0.30861 -0.70562,-0.0569 -1.29454,0.0403 -1.30872,0.21616 z M 57.364474,201.13848 c -0.0634,0.36213 -0.0172,0.66632 0.10252,0.67597 0.3299,0.0265 0.50943,-0.7504 0.24521,-1.06103 -0.14499,-0.17044 -0.27588,-0.0255 -0.34772,0.38506 z m 22.957445,28.89415 c -0.13525,0.25649 -0.0227,0.26556 0.2874,0.0232 0.28047,-0.21932 0.38058,-0.40924 0.22251,-0.422 -0.15807,-0.0127 -0.38754,0.16673 -0.50987,0.39885 z M 56.542634,204.28108 c -0.16143,0.55084 -0.20138,1.11047 -0.0879,1.24392 0.22893,0.2691 0.47479,-0.26814 0.65957,-1.4413 0.17592,-1.11703 -0.22622,-0.97819 -0.57171,0.19738 z m 38.830655,46.76783 c -0.84702,0.0266 -1.54827,0.15057 -1.55834,0.27541 -0.0101,0.12476 0.76502,0.19946 1.72241,0.16592 0.95739,-0.0336 1.65864,-0.1575 1.55833,-0.2754 -0.1003,-0.11793 -0.87537,-0.19261 -1.7224,-0.16593 z M 55.859924,207.56204 c -0.0806,0.54873 -0.36099,1.75172 -0.62332,2.67329 -0.49533,1.74033 -0.54458,2.47183 -0.1433,2.13051 0.37469,-0.31876 1.49288,-5.75471 1.18881,-5.77925 -0.15164,-0.0126 -0.34164,0.42672 -0.42215,0.97545 z m 36.030505,43.65349 c -0.59385,0.0897 -1.58422,0.15589 -2.20082,0.14718 -1.6791,-0.0237 -3.32476,0.25821 -3.09355,0.52999 0.11227,0.13193 1.46874,0.14732 3.0144,0.0341 3.68018,-0.26956 3.84962,-0.29842 3.58416,-0.61045 -0.12348,-0.14513 -0.71038,-0.19047 -1.30419,-0.10085 z m -16.68237,-17.26634 c -0.116085,0.22162 0.0782,0.15697 0.43159,-0.14368 0.35343,-0.30067 0.44837,-0.48201 0.21103,-0.40296 -0.23738,0.079 -0.52653,0.32501 -0.6426,0.54665 z m -3.046025,2.14825 c -0.11609,0.22162 0.0781,0.15695 0.43158,-0.14369 0.35341,-0.30066 0.44836,-0.482 0.21102,-0.40296 -0.23736,0.079 -0.52653,0.32502 -0.64258,0.54666 z m 11.226025,15.63737 c -0.24747,0.0997 -0.26189,0.27806 -0.0332,0.41626 0.2197,0.13288 0.59429,0.16315 0.83245,0.0672 0.24746,-0.0997 0.26189,-0.27806 0.0332,-0.41625 -0.21973,-0.13289 -0.59431,-0.16316 -0.83247,-0.0672 z M 53.592954,216.74353 c -0.15402,0.39183 -0.18163,0.82809 -0.0613,0.96947 0.14065,0.16533 0.31858,0.003 0.49871,-0.45538 0.15401,-0.39185 0.18164,-0.82811 0.0613,-0.96948 -0.14065,-0.16534 -0.31858,-0.003 -0.4987,0.45538 z m 27.529665,35.03246 c -0.43815,0.095 -2.82922,0.21383 -5.31348,0.26411 -2.484245,0.0503 -4.419705,0.20555 -4.300985,0.34511 0.11874,0.1395 1.03499,0.22053 2.03614,0.18005 1.00116,-0.0405 3.302965,-0.0885 5.115115,-0.10668 1.81215,-0.0181 3.38189,-0.10641 3.48831,-0.19616 0.40131,-0.33876 -0.25978,-0.65235 -1.0251,-0.48642 z M 53.013724,219.46042 c -0.0634,0.36211 -0.0172,0.66632 0.10254,0.67597 0.32989,0.0266 0.50944,-0.75042 0.24522,-1.06104 -0.145,-0.17043 -0.2759,-0.0254 -0.34773,0.38506 z m -0.89274,2.47295 c -0.0317,0.38844 0.0621,0.44006 0.35144,0.19389 0.51096,-0.43467 0.56255,-1.07433 0.0703,-0.87611 -0.20867,0.0841 -0.39864,0.39106 -0.4221,0.68214 z m 14.17913,18.69857 c -0.13525,0.25647 -0.0227,0.26555 0.28741,0.0232 0.28047,-0.21932 0.38058,-0.40924 0.2225,-0.42199 -0.15806,-0.0127 -0.38753,0.16672 -0.50987,0.39884 z m -14.46478,-17.05625 c -0.16062,0.40861 -0.1759,0.7523 -0.0339,0.76376 0.39211,0.0316 0.82426,-0.92097 0.55916,-1.23257 -0.1617,-0.19009 -0.32274,-0.0463 -0.52524,0.46877 z m -0.58574,1.80713 c -0.12406,0.10553 -0.22201,0.48786 -0.21758,0.84962 0.009,0.71399 0.13629,0.69562 0.5598,-0.0806 0.2899,-0.5313 0.0395,-1.09386 -0.34225,-0.76907 z m -0.81196,2.75494 c -0.21099,0.61132 -0.31786,1.18874 -0.23758,1.28313 0.0803,0.0944 -0.0472,0.47212 -0.2828,0.83941 -0.23664,0.36854 -0.24448,0.60889 -0.0176,0.53633 0.46922,-0.15 1.43033,-3.17229 1.12348,-3.53297 -0.11109,-0.13052 -0.37455,0.26279 -0.58557,0.87409 z m 18.36821,23.94787 c -1.02101,0.0124 -0.83229,0.46277 0.20729,0.49466 0.50194,0.0154 0.81102,-0.0915 0.68685,-0.23741 -0.12418,-0.14598 -0.52654,-0.26174 -0.89414,-0.25724 z m -6.18817,0.17787 c -0.0283,0.35023 3.83263,0.47295 4.24985,0.13509 0.14461,-0.11645 -0.74717,-0.26617 -1.98099,-0.33194 -1.23384,-0.0657 -2.25482,0.0229 -2.26886,0.19685 z m -2.77795,-7.60523 c -0.21206,0.1804 -0.28715,0.44366 -0.16686,0.58504 0.12028,0.14134 0.39215,0.10949 0.60422,-0.0709 0.21205,-0.1804 0.28714,-0.44367 0.16686,-0.58504 -0.12028,-0.14135 -0.39215,-0.10949 -0.60422,0.071 z m 0.2422,7.21509 c -0.83571,-0.13171 -1.32395,0.10659 -0.99958,0.48789 0.11208,0.13177 0.7945,0.18854 1.5165,0.12619 1.27604,-0.11018 1.06122,-0.36535 -0.51713,-0.61391 z m -11.90441,-7.79367 c -2.32741,6.8085 -2.5914,7.83067 -1.86216,7.2103 0.23199,-0.19736 0.40113,-0.49428 0.37589,-0.65984 -0.0253,-0.16555 0.62127,-2.25432 1.43678,-4.64167 0.81551,-2.38735 1.32542,-4.27743 1.13367,-4.19999 -0.19198,0.0773 -0.67982,1.10841 -1.08415,2.29121 z m 8.4323,7.78898 c -1.17333,0.0451 -1.87231,0.36144 -1.24559,0.56379 0.19799,0.0639 0.91152,0.0686 1.58567,0.0104 1.51527,-0.13084 1.21726,-0.63399 -0.34008,-0.57418 z m -10.04801,-11.47145 c -0.0317,0.38847 0.0621,0.44006 0.35141,0.19399 0.21678,-0.1844 0.40671,-0.49137 0.4221,-0.68215 0.015,-0.1908 -0.14275,-0.27804 -0.35143,-0.19389 -0.20868,0.0841 -0.39865,0.39106 -0.42211,0.68213 z m 7.19343,11.43092 c -0.21571,0.0329 -0.2938,0.17544 -0.17347,0.31685 0.12028,0.14135 0.39515,0.23012 0.61094,0.19694 0.21571,-0.0329 0.2938,-0.17545 0.17347,-0.31686 -0.12027,-0.14135 -0.39515,-0.23012 -0.61093,-0.19694 z m -8.24732,-8.26246 c -0.34558,0.30659 -0.54339,1.28913 -0.26389,1.31167 0.37473,0.0302 0.89108,-0.965 0.64857,-1.25006 -0.1074,-0.12623 -0.28052,-0.15396 -0.38468,-0.0616 z m 3.17914,5.55987 c -0.9817,1.21948 -0.91757,1.37046 0.18402,0.43332 0.51836,-0.44096 0.84652,-0.91453 0.72927,-1.05237 -0.1225,-0.14399 -0.51101,0.11934 -0.91329,0.61905 z m -0.16086,2.73034 c -0.0248,0.31107 2.17382,0.54559 3.0969,0.33033 0.40667,-0.0949 -0.11955,-0.25994 -1.16938,-0.36702 -1.04985,-0.10694 -1.91722,-0.0905 -1.92748,0.0366 z m -3.68359,-6.40184 c -0.12407,0.10553 -0.22192,0.48789 -0.21759,0.84964 0.009,0.71397 0.13628,0.69563 0.55979,-0.0806 0.28989,-0.53129 0.0395,-1.09387 -0.34224,-0.76907 z m 34.904455,44.73929 c -0.14135,0.12027 -0.011,0.50783 0.28961,0.86125 0.30066,0.35342 0.66233,0.54418 0.80369,0.42393 0.14135,-0.12028 0.0111,-0.50783 -0.28962,-0.86126 -0.30065,-0.35341 -0.66232,-0.54419 -0.80368,-0.42392 z m -1.42533,-1.44578 c -0.27129,0.23079 0.0344,0.82103 0.39658,0.7658 0.21921,-0.0334 0.24515,-0.24112 0.0577,-0.4615 -0.18748,-0.22039 -0.39195,-0.3573 -0.45425,-0.30429 z m -7.255975,-6.67578 c -0.14134,0.12027 -0.15868,0.3343 -0.0385,0.47566 0.12029,0.14135 0.33431,0.15869 0.47569,0.0384 0.14135,-0.12029 0.1587,-0.33432 0.0385,-0.4757 -0.12027,-0.14134 -0.33431,-0.15859 -0.47568,-0.0384 z M 10.011962,211.16601 c 0.0776,0.23392 0.36854,0.58456 0.6464,0.77924 0.2779,0.19466 0.21439,0.003 -0.14115,-0.4253 -0.3557,-0.42845 -0.5829004,-0.58784 -0.50531,-0.3539 z m 4.11874,5.36563 c 0.079,0.23736 0.32502,0.52654 0.54665,0.64259 0.22162,0.11609 0.15695,-0.0782 -0.14369,-0.43159 -0.30065,-0.35341 -0.48201,-0.44836 -0.40296,-0.21102 z m 46.096742,54.70382 c 0.0776,0.23393 0.36855,0.58457 0.64642,0.77925 0.27791,0.19465 0.21441,0.003 -0.14115,-0.42531 -0.35569,-0.42844 -0.5829,-0.58784 -0.50531,-0.3539 z M 16.276402,219.57142 c 0.0776,0.23393 0.36854,0.58455 0.646412,0.77924 0.27792,0.19466 0.21441,0.003 -0.14115,-0.4253 -0.355692,-0.42845 -0.582902,-0.58785 -0.505302,-0.3539 z m 41.507402,49.31235 c 0.0776,0.23392 0.36853,0.58456 0.6464,0.77925 0.27791,0.19465 0.21443,0.003 -0.14114,-0.4253 -0.3557,-0.42845 -0.58291,-0.58786 -0.50532,-0.35391 z m -39.13777,-46.00315 c 0.079,0.23736 0.32501,0.52653 0.54665,0.64258 0.22162,0.11609 0.15696,-0.0782 -0.14368,-0.43158 -0.30066,-0.35343 -0.48202,-0.44836 -0.40296,-0.21103 z m 25.87518,30.82178 c -0.27127,0.23079 0.0344,0.82103 0.39658,0.76579 0.21922,-0.0334 0.24517,-0.24109 0.0577,-0.4615 -0.18749,-0.22039 -0.39187,-0.35735 -0.45425,-0.30428 z m -16.98688,-19.33188 c 0.079,0.23736 0.32503,0.52654 0.54666,0.64259 0.22161,0.11609 0.15695,-0.0782 -0.14369,-0.43159 -0.30065,-0.35342 -0.48201,-0.44835 -0.40296,-0.21102 z"
       style="fill:#b5b837;fill-opacity:1;stroke-width:1.27545"
       id="path4288"
       inkscape:export-filename="./path4288.svg"
       inkscape:export-xdpi="96"
       inkscape:export-ydpi="96" /></g></svg>
