<?xml version="1.0" encoding="UTF-8" standalone="no"?>
<!-- Created with Inkscape (http://www.inkscape.org/) -->

<svg
   width="125.41733mm"
   height="124.68502mm"
   viewBox="0 0 125.41733 124.68502"
   version="1.1"
   id="svg5"
   xml:space="preserve"
   inkscape:export-filename="bitmap.png"
   inkscape:export-xdpi="96"
   inkscape:export-ydpi="96"
   xmlns:inkscape="http://www.inkscape.org/namespaces/inkscape"
   xmlns:sodipodi="http://sodipodi.sourceforge.net/DTD/sodipodi-0.dtd"
   xmlns="http://www.w3.org/2000/svg"
   xmlns:svg="http://www.w3.org/2000/svg"><sodipodi:namedview
     id="namedview7"
     pagecolor="#ffffff"
     bordercolor="#000000"
     borderopacity="0.25"
     inkscape:showpageshadow="2"
     inkscape:pageopacity="0.0"
     inkscape:pagecheckerboard="0"
     inkscape:deskcolor="#d1d1d1"
     inkscape:document-units="mm"
     showgrid="false"
     inkscape:zoom="0.75277076"
     inkscape:cx="75.720263"
     inkscape:cy="349.37595"
     inkscape:window-width="1920"
     inkscape:window-height="1011"
     inkscape:window-x="0"
     inkscape:window-y="32"
     inkscape:window-maximized="1"
     inkscape:current-layer="layer1" /><defs
     id="defs2" /><g
     inkscape:label="Camada 1"
     inkscape:groupmode="layer"
     id="layer1"
     transform="translate(-84.975267,1.5776583)"><path
       d="m 99.794685,89.587417 c -2.49013,-5.381856 -1.60576,-11.449227 2.586685,-17.746793 1.84345,-2.769072 5.79721,-6.872318 8.72155,-9.051282 3.60446,-2.685734 3.52541,-2.881992 -1.25195,-3.107848 -10.388165,-0.4911 -19.599951,-3.945554 -23.050856,-8.644143 -0.733549,-0.998749 -1.462951,-2.373798 -1.620905,-3.05566 -0.765995,-3.306304 0.67831,-8.085788 3.450699,-11.419139 4.446165,-5.345764 14.683302,-8.621697 26.175762,-8.376337 5.90624,0.126088 17.62858,1.994806 26.71558,4.258878 2.38171,0.593424 4.43838,0.987054 4.57037,0.874767 0.4115,-0.350069 -0.55986,-1.205338 -4.44546,-3.914184 -6.11409,-4.262424 -8.23731,-6.123603 -10.93454,-9.585075 -3.90064,-5.005855 -5.91579,-10.0463884 -5.71539,-14.2961274 0.12017,-2.548623 0.99929,-4.0811976 3.12951,-5.45570264 5.17564,-3.33952586 11.88741,-1.57368296 19.26607,5.06882964 5.95545,5.3612764 14.43776,19.7437684 18.63606,31.5989824 0.62385,1.761691 1.36998,3.411372 1.65804,3.665944 0.98391,0.869513 4.10377,-1.329779 14.89867,-10.502575 8.71896,-7.408493 9.95393,-8.553492 12.88124,-11.940038 3.86144,-4.467173 5.56085,-6.82497 8.33156,-11.5593104 2.21038,-3.7769312 4.03265,-5.71893184 5.46534,-5.82447484 0.67684,-0.049866 0.83103,0.07585 1.0541,0.85927684 0.72638,2.5512203 -3.86581,10.9673664 -9.62665,17.6428514 -1.87234,2.169629 -4.07478,4.229885 -8.91743,8.341775 -6.65027,5.647323 -11.15512,8.867843 -17.72522,12.673952 -3.82996,2.218717 -4.16096,2.482161 -3.74019,2.976787 0.18104,0.212803 1.7178,1.094934 3.41505,1.960302 9.67386,4.932357 21.57539,13.865222 27.01654,20.277698 2.84144,3.349352 5.02584,7.283672 6.01902,10.843242 1.3951,5.000096 0.59606,8.712297 -2.52154,11.714737 -1.62015,1.560319 -1.82483,1.665218 -3.49082,1.788697 -3.33953,0.247566 -6.30185,-0.827976 -10.7741,-3.911799 -6.05888,-4.177881 -9.26001,-8.816834 -15.81176,-22.913719 -3.68811,-7.935421 -3.66956,-7.901192 -3.9943,-7.370174 -0.14183,0.23191 -0.17249,3.472121 -0.0682,7.20052 0.30753,10.989673 0.16746,18.060825 -0.53332,26.925283 -0.73174,9.255693 -1.3389,12.194062 -3.47892,16.836202 -2.82404,6.12585 -5.78145,10.48633 -8.94829,13.1936 -5.04048,4.30903 -8.96231,4.59849 -14.14097,1.04386 -2.76371,-1.897 -4.99109,-5.39344 -5.98309,-9.392 -0.97667,-3.93678 -1.06928,-9.16303 -0.24845,-14.022059 0.93524,-5.536313 1.94343,-8.632705 5.19006,-15.939932 1.53905,-3.463981 2.71057,-6.401248 2.60336,-6.527266 -0.10865,-0.127768 -1.01807,0.589191 -2.05526,1.620284 -10.70367,10.640544 -13.0231,12.535405 -18.04874,14.744907 -6.67931,2.936542 -11.57606,4.070217 -16.06459,3.719227 -4.45688,-0.34859 -7.05195,-1.941296 -8.594365,-5.274964 z m 4.774245,-1.892591 c 0.13305,-0.113156 0.21493,-0.382246 0.18237,-0.59784 -0.0328,-0.215678 -0.24006,-0.238806 -0.46051,-0.05129 -0.2204,0.187496 -0.30233,0.456572 -0.18238,0.59784 0.12027,0.141376 0.32751,0.164443 0.46054,0.05129 z m 43.02581,31.627674 c 0.046,-0.0391 0.85303,-3.71891 1.79365,-8.17747 4.88619,-23.160959 7.97365,-36.433453 11.10599,-47.742858 1.98768,-7.176516 2.37908,-8.914559 1.91949,-8.52358 -0.23939,0.203654 -2.6609,8.50655 -4.3559,14.936706 -2.97372,11.279858 -11.16395,48.852582 -10.75407,49.334382 0.11407,0.1341 0.24491,0.21188 0.29084,0.17283 z M 91.450125,45.310679 c 0.969993,-0.09954 1.783408,-0.05118 1.807604,0.10747 0.02414,0.158643 0.294885,0.364568 0.601611,0.457521 0.44609,0.135022 0.544094,0.06629 0.489951,-0.344201 -0.04972,-0.377084 2.218904,-0.715833 8.550229,-1.276783 22.07819,-1.956094 35.86212,-2.756694 49.467,-2.873193 6.9075,-0.05916 8.84871,-0.465276 3.00892,-0.629499 -10.64396,-0.299333 -30.73859,0.865419 -58.958875,3.417423 -3.933972,0.355756 -7.398752,0.735817 -7.699507,0.844581 -0.914973,0.330883 0.695877,0.505733 2.733068,0.296676 z m 59.534405,63.828861 c 0.60008,-2.23069 0.69178,-3.40932 0.1944,-2.49777 -0.46653,0.85501 -1.31163,4.6427 -1.04074,4.66456 0.14183,0.0117 0.52269,-0.96362 0.84632,-2.16679 z M 100.65645,45.670334 c 1.0404,-0.0093 1.89985,-0.118478 1.90988,-0.242731 0.0255,-0.319065 -5.781575,-0.292548 -6.138405,0.028 -0.16151,0.145282 0.29813,0.256633 1.02153,0.247762 0.72345,-0.0089 2.1666,-0.02378 3.206995,-0.03301 z m 51.63822,58.577576 c 0.12408,-0.10554 0.22192,-0.48789 0.21759,-0.84965 -0.007,-0.53345 -0.0787,-0.59759 -0.38218,-0.33944 -0.2058,0.17508 -0.3857,0.46103 -0.39976,0.63545 -0.0363,0.45178 0.29825,0.78006 0.5644,0.55364 z M 104.74325,45.396881 c 0.48835,-0.275423 0.4704,-0.334789 -0.13333,-0.440413 -0.82562,-0.144402 -1.3542,0.199807 -0.81145,0.528463 0.20919,0.126666 0.63431,0.08702 0.94478,-0.08805 z m 2.14865,0.004 c 0.19694,-0.167529 0.57222,-0.187741 0.834,-0.04491 0.26175,0.142863 0.61539,0.141025 0.78583,-0.004 0.17046,-0.145005 -0.20774,-0.321701 -0.84041,-0.392666 -1.20365,-0.135022 -1.72663,0.05358 -1.35614,0.489083 0.12028,0.141348 0.37991,0.11961 0.57672,-0.04756 z m 46.46094,54.402427 c 0.27031,-0.22995 0.34754,-1.258 0.11506,-1.53127 -0.10043,-0.11807 -0.30864,0.10593 -0.46263,0.4978 -0.27653,0.70351 -0.0514,1.372902 0.34755,1.03349 z m 0.89692,-3.1816 c 0.0712,-0.22154 0.0254,-0.52564 -0.10252,-0.67597 -0.145,-0.17044 -0.27589,-0.0255 -0.34773,0.38504 -0.12483,0.7139 0.23796,0.94833 0.45023,0.2909 z M 113.62373,44.867491 c 0.0281,-0.348325 -1.91387,-0.42528 -2.33321,-0.09247 -0.14204,0.112956 0.31887,0.251689 1.02449,0.308604 0.70562,0.05693 1.29454,-0.04035 1.30872,-0.216155 z m 41.02731,49.835054 c 0.0634,-0.362126 0.0172,-0.666316 -0.10252,-0.675968 -0.3299,-0.02647 -0.50943,0.750404 -0.24521,1.061034 0.14499,0.17044 0.27588,0.0255 0.34772,-0.385057 z M 131.69359,65.808396 c 0.13525,-0.256485 0.0227,-0.265557 -0.2874,-0.02317 -0.28047,0.219323 -0.38058,0.409242 -0.22251,0.422002 0.15807,0.01272 0.38754,-0.166724 0.50987,-0.398847 z m 23.77929,25.751557 c 0.16143,-0.550848 0.20138,-1.110473 0.0879,-1.243927 -0.22893,-0.269095 -0.47479,0.268144 -0.65957,1.441304 -0.17592,1.117025 0.22622,0.978187 0.57171,-0.197376 z M 116.64222,44.792124 c 0.84702,-0.02664 1.54827,-0.150579 1.55834,-0.275418 0.0101,-0.124756 -0.76502,-0.199455 -1.72241,-0.165918 -0.95739,0.03357 -1.65864,0.157502 -1.55833,0.275399 0.1003,0.117933 0.87537,0.192617 1.7224,0.165937 z m 39.51337,43.486867 c 0.0806,-0.548733 0.36099,-1.751722 0.62332,-2.673288 0.49533,-1.740336 0.54458,-2.471837 0.1433,-2.130512 -0.37469,0.318763 -1.49288,5.754706 -1.18881,5.779249 0.15164,0.01255 0.34164,-0.426725 0.42215,-0.975453 z m -36.03051,-43.65349 c 0.59385,-0.08966 1.58422,-0.155894 2.20082,-0.147181 1.6791,0.02373 3.32476,-0.258212 3.09355,-0.529987 -0.11227,-0.131937 -1.46874,-0.147327 -3.0144,-0.03413 -3.68018,0.269557 -3.84962,0.298412 -3.58416,0.610448 0.12348,0.145132 0.71038,0.190467 1.30419,0.100846 z m 16.68237,17.266334 c 0.11609,-0.221619 -0.0782,-0.156964 -0.43159,0.143684 -0.35343,0.300666 -0.44837,0.482006 -0.21103,0.402962 0.23738,-0.07903 0.52653,-0.325015 0.6426,-0.546652 z m 3.04603,-2.148244 c 0.11609,-0.22162 -0.0781,-0.156953 -0.43158,0.143685 -0.35341,0.300659 -0.44836,0.482008 -0.21102,0.402964 0.23736,-0.07903 0.52653,-0.325025 0.64258,-0.546656 z M 128.62745,44.106219 c 0.24747,-0.09971 0.26189,-0.278057 0.0332,-0.416261 -0.2197,-0.132883 -0.59429,-0.163149 -0.83245,-0.06716 -0.24746,0.09971 -0.26189,0.278059 -0.0332,0.416252 0.21973,0.132891 0.59431,0.163155 0.83247,0.06716 z m 29.79511,34.991277 c 0.15402,-0.391828 0.18163,-0.828089 0.0613,-0.969469 -0.14065,-0.165324 -0.31858,-0.0028 -0.49871,0.455383 -0.15401,0.391847 -0.18164,0.828107 -0.0613,0.96948 0.14065,0.165336 0.31858,0.0028 0.4987,-0.455382 z M 130.89289,44.065043 c 0.43815,-0.09499 2.82922,-0.213838 5.31348,-0.264113 2.48425,-0.05025 4.41971,-0.205555 4.30099,-0.345108 -0.11874,-0.139504 -1.03499,-0.220535 -2.03614,-0.180049 -1.00116,0.04053 -3.30297,0.08853 -5.11512,0.106676 -1.81215,0.01814 -3.38189,0.106408 -3.48831,0.19616 -0.40131,0.338762 0.25978,0.652349 1.0251,0.486423 z m 28.1089,32.315571 c 0.0634,-0.362117 0.0172,-0.666322 -0.10254,-0.675976 -0.32989,-0.02657 -0.50944,0.750419 -0.24522,1.061044 0.145,0.170431 0.2759,0.02544 0.34773,-0.385066 z m 0.89274,-2.472952 c 0.0317,-0.388447 -0.0621,-0.440062 -0.35144,-0.193896 -0.51096,0.434672 -0.56255,1.074334 -0.0703,0.876118 0.20867,-0.08411 0.39864,-0.39106 0.4221,-0.682147 z M 145.7154,55.209092 c 0.13525,-0.256475 0.0227,-0.265557 -0.28741,-0.02317 -0.28047,0.219314 -0.38058,0.409242 -0.2225,0.421984 0.15806,0.01272 0.38753,-0.166715 0.50987,-0.398836 z m 14.46478,17.05625 c 0.16062,-0.408614 0.1759,-0.752306 0.0339,-0.763759 -0.39211,-0.03163 -0.82426,0.920971 -0.55916,1.232569 0.1617,0.190092 0.32274,0.04635 0.52524,-0.468774 z m 0.58574,-1.807128 c 0.12406,-0.105531 0.22201,-0.487862 0.21758,-0.849628 -0.009,-0.713988 -0.13629,-0.695621 -0.5598,0.08057 -0.2899,0.531302 -0.0395,1.093867 0.34225,0.769072 z m 0.81196,-2.754949 c 0.21099,-0.611312 0.31786,-1.188733 0.23758,-1.283123 -0.0803,-0.09441 0.0472,-0.47212 0.2828,-0.839416 0.23664,-0.368537 0.24448,-0.608882 0.0176,-0.536331 -0.46922,0.150001 -1.43033,3.172299 -1.12348,3.532974 0.11109,0.13052 0.37455,-0.262794 0.58557,-0.874087 z M 143.20967,43.755399 c 1.02101,-0.01243 0.83229,-0.46277 -0.20729,-0.494658 -0.50194,-0.01539 -0.81102,0.09145 -0.68685,0.237404 0.12418,0.145982 0.52654,0.261741 0.89414,0.257245 z m 6.18817,-0.177874 c 0.0283,-0.350221 -3.83263,-0.472943 -4.24985,-0.135082 -0.14461,0.116448 0.74717,0.266168 1.98099,0.331937 1.23384,0.06573 2.25482,-0.02285 2.26886,-0.196855 z m 2.77795,7.605234 c 0.21206,-0.180399 0.28715,-0.443661 0.16686,-0.585035 -0.12028,-0.141348 -0.39215,-0.10949 -0.60422,0.07095 -0.21205,0.180392 -0.28714,0.443664 -0.16686,0.585035 0.12028,0.141348 0.39215,0.10949 0.60422,-0.07095 z m -0.2422,-7.215094 c 0.83571,0.131719 1.32395,-0.106585 0.99958,-0.487889 -0.11208,-0.13177 -0.7945,-0.18854 -1.5165,-0.126183 -1.27604,0.110172 -1.06122,0.365351 0.51713,0.613905 z m 11.90441,7.793674 c 2.32741,-6.808501 2.5914,-7.830668 1.86216,-7.210303 -0.23199,0.197361 -0.40113,0.494286 -0.37589,0.659843 0.0253,0.165555 -0.62127,2.254317 -1.43678,4.641668 -0.81551,2.387351 -1.32542,4.277435 -1.13367,4.199993 0.19198,-0.07733 0.67982,-1.10841 1.08415,-2.291209 z m -8.4323,-7.788982 c 1.17333,-0.04506 1.87231,-0.361434 1.24559,-0.563789 -0.19799,-0.06389 -0.91152,-0.0686 -1.58567,-0.01039 -1.51527,0.130841 -1.21726,0.633993 0.34008,0.574179 z m 10.04801,11.471454 c 0.0317,-0.388467 -0.0621,-0.440065 -0.35141,-0.193995 -0.21678,0.184405 -0.40671,0.49137 -0.4221,0.68215 -0.015,0.190799 0.14275,0.278039 0.35143,0.193895 0.20868,-0.08411 0.39865,-0.391059 0.42211,-0.682136 z m -7.19343,-11.43092 c 0.21571,-0.03293 0.2938,-0.175442 0.17347,-0.31685 -0.12028,-0.141348 -0.39515,-0.23012 -0.61094,-0.196938 -0.21571,0.03294 -0.2938,0.175442 -0.17347,0.31686 0.12027,0.141344 0.39515,0.23012 0.61093,0.196934 z m 8.24732,8.262455 c 0.34558,-0.306591 0.54339,-1.289124 0.26389,-1.311671 -0.37473,-0.03017 -0.89108,0.965001 -0.64857,1.250067 0.1074,0.126225 0.28052,0.153956 0.38468,0.0616 z m -3.17914,-5.559865 c 0.9817,-1.21948 0.91757,-1.370457 -0.18402,-0.433323 -0.51836,0.440963 -0.84652,0.914534 -0.72927,1.052372 0.1225,0.143991 0.51101,-0.119338 0.91329,-0.619049 z m 0.16086,-2.730341 c 0.0248,-0.311072 -2.17382,-0.545588 -3.0969,-0.330333 -0.40667,0.09485 0.11955,0.259945 1.16938,0.367018 1.04985,0.106941 1.91722,0.09049 1.92748,-0.03655 z m 3.68359,6.401839 c 0.12407,-0.105531 0.22192,-0.487892 0.21759,-0.849637 -0.009,-0.713977 -0.13628,-0.695631 -0.55979,0.08058 -0.28989,0.531292 -0.0395,1.093865 0.34224,0.769071 z M 132.26845,5.6476886 c 0.14135,-0.120265 0.011,-0.507827 -0.28961,-0.8612489 -0.30066,-0.3534247 -0.66233,-0.5441845 -0.80369,-0.4239269 -0.14135,0.1202742 -0.0111,0.5078248 0.28962,0.8612608 0.30065,0.35341 0.66232,0.544182 0.80368,0.423915 z m 1.42533,1.445785 c 0.27129,-0.230791 -0.0344,-0.821034 -0.39658,-0.7658 -0.21921,0.03341 -0.24515,0.241117 -0.0577,0.461493 0.18748,0.220389 0.39195,0.357303 0.45425,0.304298 z m 7.25598,6.6757714 c 0.14134,-0.120264 0.15868,-0.334295 0.0385,-0.475652 -0.12029,-0.141351 -0.33431,-0.158697 -0.47569,-0.03839 -0.14135,0.120284 -0.1587,0.334313 -0.0385,0.475696 0.12027,0.141344 0.33431,0.158592 0.47568,0.03839 z m 61.05379,70.905777 c -0.0776,-0.233919 -0.36854,-0.584558 -0.6464,-0.779242 -0.2779,-0.194665 -0.21439,-0.0033 0.14115,0.425299 0.3557,0.428453 0.5829,0.587845 0.50531,0.353899 z m -4.11874,-5.36563 c -0.079,-0.237366 -0.32502,-0.52654 -0.54665,-0.642593 -0.22162,-0.116087 -0.15695,0.07818 0.14369,0.431588 0.30065,0.353412 0.48201,0.448358 0.40296,0.211025 z m -46.09674,-54.70382 c -0.0776,-0.233929 -0.36855,-0.584569 -0.64642,-0.779255 -0.27791,-0.194647 -0.21441,-0.0032 0.14115,0.425309 0.35569,0.428441 0.5829,0.587846 0.50531,0.353908 z m 43.95104,51.66404 c -0.0776,-0.23393 -0.36854,-0.584555 -0.64641,-0.779243 -0.27792,-0.194658 -0.21441,-0.0032 0.14115,0.425299 0.35569,0.428452 0.5829,0.587856 0.5053,0.353905 z m -41.5074,-49.312356 c -0.0776,-0.23392 -0.36853,-0.584556 -0.6464,-0.779245 -0.27791,-0.194654 -0.21443,-0.0032 0.14114,0.425298 0.3557,0.428454 0.58291,0.587858 0.50532,0.353912 z m 39.13777,46.003151 c -0.079,-0.237356 -0.32501,-0.526528 -0.54665,-0.642581 -0.22162,-0.116087 -0.15696,0.07818 0.14368,0.431588 0.30066,0.353422 0.48202,0.448357 0.40296,0.211021 z M 167.4943,42.138629 c 0.27127,-0.230785 -0.0344,-0.821025 -0.39658,-0.765789 -0.21922,0.03341 -0.24517,0.24109 -0.0577,0.461495 0.18749,0.220391 0.39187,0.357354 0.45425,0.304285 z m 16.98688,19.331881 c -0.079,-0.237365 -0.32503,-0.52654 -0.54666,-0.642593 -0.22161,-0.116086 -0.15695,0.07818 0.14369,0.43159 0.30065,0.353421 0.48201,0.448357 0.40296,0.211023 z"
       style="fill:#b5b837;fill-opacity:1;stroke-width:1.27545"
       id="path4288"
       inkscape:export-filename="./path4288.svg"
       inkscape:export-xdpi="96"
       inkscape:export-ydpi="96" /></g></svg>
