<?xml version="1.0" encoding="UTF-8" standalone="no"?>
<!-- Created with Inkscape (http://www.inkscape.org/) -->

<svg
   width="125.063mm"
   height="126.53061mm"
   viewBox="0 0 125.063 126.53061"
   version="1.1"
   id="svg5"
   xml:space="preserve"
   inkscape:export-filename="bitmap.png"
   inkscape:export-xdpi="96"
   inkscape:export-ydpi="96"
   inkscape:version="1.2.2 (b0a8486541, 2022-12-01)"
   sodipodi:docname="background_icon.svg"
   xmlns:inkscape="http://www.inkscape.org/namespaces/inkscape"
   xmlns:sodipodi="http://sodipodi.sourceforge.net/DTD/sodipodi-0.dtd"
   xmlns="http://www.w3.org/2000/svg"
   xmlns:svg="http://www.w3.org/2000/svg"><sodipodi:namedview
     id="namedview7"
     pagecolor="#ffffff"
     bordercolor="#000000"
     borderopacity="0.25"
     inkscape:showpageshadow="2"
     inkscape:pageopacity="0.0"
     inkscape:pagecheckerboard="0"
     inkscape:deskcolor="#d1d1d1"
     inkscape:document-units="mm"
     showgrid="false"
     inkscape:zoom="0.75277076"
     inkscape:cx="-816.31757"
     inkscape:cy="620.37478"
     inkscape:window-width="1920"
     inkscape:window-height="1011"
     inkscape:window-x="0"
     inkscape:window-y="32"
     inkscape:window-maximized="1"
     inkscape:current-layer="layer1" /><defs
     id="defs2" /><g
     inkscape:label="Camada 1"
     inkscape:groupmode="layer"
     id="layer1"
     transform="translate(-85.058619,-170.00756)"><path
       d="m 119.87137,183.68688 c 5.44517,-2.34847 11.48731,-1.30565 17.67304,3.05012 2.71989,1.91526 6.71827,5.97502 8.81999,8.95537 2.59051,3.6735 2.78877,3.59961 3.13952,-1.1702 0.76276,-10.37175 4.45703,-19.49002 9.2443,-22.8168 1.0176,-0.70717 2.41127,-1.40034 3.09702,-1.54041 3.32522,-0.67922 8.06527,0.88961 11.32496,3.74829 5.22758,4.58452 8.23456,14.90385 7.6886,26.38596 -0.28057,5.90091 -2.45534,17.57035 -4.95639,26.59499 -0.65555,2.36537 -1.10286,4.41104 -0.99406,4.54593 0.3392,0.42051 1.21959,-0.52813 4.02916,-4.34153 4.42094,-6.00047 6.33704,-8.07428 9.86788,-10.68001 5.10619,-3.76833 10.19773,-5.65091 14.44077,-5.33939 2.54461,0.1868 4.05366,1.10572 5.37196,3.27117 3.20295,5.26125 1.26211,11.92451 -5.57116,19.12685 -5.51527,5.81315 -20.11477,13.91625 -32.07575,17.80293 -1.77742,0.57755 -3.44606,1.28026 -3.70808,1.56156 -0.89496,0.96082 1.22195,4.13716 10.10918,15.16835 7.17783,8.90982 8.29013,10.17433 11.59892,13.18925 4.36461,3.97698 6.67715,5.7375 11.33737,8.63113 3.71779,2.30845 5.61147,4.1809 5.67949,5.61587 0.0322,0.6779 -0.0976,0.82874 -0.88658,1.03125 -2.56935,0.65938 -10.86247,-4.15143 -17.38495,-10.08496 -2.11988,-1.92847 -4.12179,-4.18406 -8.10557,-9.13264 -5.47142,-6.79574 -8.57296,-11.38331 -12.20587,-18.05074 -2.11775,-3.8867 -2.37246,-4.22448 -2.87791,-3.8168 -0.21746,0.17542 -1.1395,1.68857 -2.04898,3.3626 -5.18377,9.5415 -14.42498,21.20523 -20.97761,26.47675 -3.42254,2.75284 -7.41268,4.83355 -10.99701,5.73326 -5.03489,1.26379 -8.72492,0.3679 -11.64477,-2.82718 -1.51738,-1.66043 -1.6169,-1.86777 -1.69674,-3.53642 -0.16011,-3.34487 0.99257,-6.27803 4.19234,-10.66808 4.33498,-5.94749 9.0561,-9.02615 23.31958,-15.20683 8.0292,-3.47923 7.99449,-3.46157 7.47216,-3.8001 -0.22811,-0.14788 -3.46642,-0.26328 -7.19628,-0.25657 -10.99394,0.0199 -18.05902,-0.30514 -26.9021,-1.23761 -9.23338,-0.97364 -12.15486,-1.65747 -16.73943,-3.91822 -6.04987,-2.98331 -10.331475,-6.05383 -12.954948,-9.29043 -4.175682,-5.15149 -4.362437,-9.07954 -0.673525,-14.16344 1.968665,-2.71312 5.522182,-4.84827 9.545325,-5.7353 3.960988,-0.87333 9.187878,-0.82917 14.023758,0.11851 5.50994,1.07975 8.57889,2.16862 15.79868,5.60532 3.42264,1.62894 6.32814,2.87713 6.45693,2.77325 0.13051,-0.1053 -0.56236,-1.03314 -1.56596,-2.09695 -10.35686,-10.9784 -12.19039,-13.3466 -14.26764,-18.42834 -2.76078,-6.75385 -3.76596,-11.67859 -3.29764,-16.1564 0.46508,-4.44623 2.12514,-6.99874 5.49801,-8.4534 z m 1.76703,4.82211 c 0.10965,0.13594 0.37648,0.22487 0.59287,0.19793 0.21646,-0.0271 0.245,-0.23372 0.063,-0.45904 -0.18166,-0.22524 -0.44851,-0.31416 -0.59289,-0.19794 -0.14444,0.11654 -0.1729,0.32312 -0.063,0.45907 z m -32.742574,42.18359 c 0.03792,0.047 3.695313,0.95004 8.127746,2.00698 23.025188,5.49051 36.212348,8.92416 47.435948,12.35133 7.12205,2.17476 8.84926,2.61151 8.47044,2.14184 -0.19733,-0.24463 -8.43402,-2.88255 -14.81764,-4.7452 -11.19819,-3.26783 -48.543769,-12.4383 -49.036108,-12.04118 -0.137019,0.11054 -0.218227,0.23929 -0.180395,0.28622 z m 75.455444,-54.18897 c 0.0741,0.97227 0.005,1.78415 -0.15469,1.80418 -0.1592,0.0199 -0.37217,0.28526 -0.47311,0.58943 -0.14671,0.4424 -0.0806,0.54217 0.33126,0.4988 0.37825,-0.0399 0.65753,2.23688 1.05264,8.5807 1.37778,22.12182 1.81746,35.92197 1.57796,49.52524 -0.12153,6.90667 0.23361,8.85785 0.55057,3.02436 0.57772,-10.63248 -0.0609,-30.7507 -1.87367,-59.02809 -0.25271,-3.94194 -0.54198,-7.41547 -0.64285,-7.71898 -0.30683,-0.92331 -0.52377,0.68241 -0.36808,2.72437 z m -65.364648,57.84402 c 2.214218,0.65823 3.390048,0.78075 2.491808,0.25972 -0.84249,-0.48876 -4.606778,-1.43265 -4.635708,-1.16242 -0.015,0.14151 0.94959,0.54771 2.1439,0.90272 z m 64.764238,-48.65026 c -0.0183,1.04028 0.0688,1.90231 0.19268,1.91559 0.31834,0.0334 0.44372,-5.77194 0.13263,-6.13703 -0.14102,-0.16526 -0.26437,0.29131 -0.27441,1.01469 -0.01,0.72343 -0.0329,2.16648 -0.051,3.20675 z m -59.90858,50.08793 c 0.10226,0.12684 0.48206,0.23432 0.84368,0.23975 0.53344,0.007 0.59945,-0.063 0.34933,-0.37316 -0.16965,-0.21032 -0.4508,-0.39763 -0.62478,-0.41625 -0.4507,-0.0479 -0.7876,0.27773 -0.56821,0.54972 z m 60.07501,-45.99536 c 0.26255,0.49539 0.32237,0.479 0.44375,-0.12176 0.16596,-0.82157 -0.16431,-1.35897 -0.50704,-0.825 -0.1321,0.2058 -0.1036,0.63179 0.0632,0.94676 z m -0.0602,2.14781 c 0.16232,0.20125 0.1727,0.57693 0.023,0.83488 -0.14965,0.25793 -0.1571,0.61149 -0.0166,0.78567 0.14049,0.17421 0.32702,-0.19926 0.41451,-0.82986 0.16647,-1.1997 -0.008,-1.72743 -0.45344,-1.36847 -0.14444,0.11654 -0.12961,0.37663 0.0324,0.57777 z m -55.59937,45.02165 c 0.22279,0.27624 1.24847,0.38033 1.52774,0.15505 0.1206,-0.0973 -0.0978,-0.31132 -0.48553,-0.4755 -0.69604,-0.29483 -1.37109,-0.0873 -1.04223,0.32038 z m 3.15703,0.97985 c 0.21963,0.0769 0.52481,0.0392 0.67843,-0.0848 0.17421,-0.14048 0.0325,-0.27515 -0.3758,-0.35768 -0.7104,-0.14344 -0.95424,0.21307 -0.30261,0.44246 z m 52.79944,-39.25802 c 0.34751,0.0368 0.4752,-1.90209 0.15353,-2.32999 -0.10924,-0.14493 -0.25993,0.31218 -0.33532,1.01606 -0.0756,0.70386 0.007,1.29515 0.18183,1.31393 z m -50.89143,39.70938 c 0.36036,0.0728 0.66565,0.0346 0.67843,-0.0848 0.0346,-0.32915 -0.73682,-0.52889 -1.05426,-0.27289 -0.17421,0.14047 -0.0325,0.27514 0.37583,0.35768 z M 142.80769,216.197 c 0.25285,0.1419 0.26482,0.0301 0.0307,-0.28669 -0.2119,-0.28612 -0.39914,-0.39116 -0.41602,-0.2335 -0.0165,0.15772 0.15652,0.39177 0.38536,0.52013 z m -26.3649,23.09739 c 0.54642,0.17578 1.10481,0.23034 1.24119,0.12039 0.275,-0.22181 -0.25563,-0.48165 -1.42353,-0.69708 -1.11205,-0.20511 -0.98378,0.20055 0.18235,0.57668 z m 47.76777,-37.59374 c 0.004,0.84742 0.11001,1.55169 0.23455,1.56502 0.12442,0.0136 0.2194,-0.75954 0.21076,-1.7175 -0.009,-0.95795 -0.11405,-1.66219 -0.23454,-1.56501 -0.12053,0.0972 -0.21545,0.87003 -0.21077,1.71749 z m -44.5058,38.36206 c 0.54643,0.0949 1.74167,0.4067 2.65607,0.69305 1.72677,0.5407 2.45674,0.60908 2.12604,0.19894 -0.30885,-0.38289 -5.71369,-1.64293 -5.74618,-1.33961 -0.0169,0.15123 0.41764,0.35269 0.96407,0.44754 z m 44.58125,-34.87603 c 0.0741,0.596 0.11438,1.58775 0.0895,2.20391 -0.0677,1.67791 0.17113,3.33039 0.44887,3.10636 0.13484,-0.10876 0.18567,-1.46438 0.11296,-3.01247 -0.17318,-3.68596 -0.19759,-3.85611 -0.51647,-3.59891 -0.14826,0.11966 -0.20899,0.70517 -0.13489,1.30112 z m -17.69692,16.22491 c 0.21849,0.12192 0.15897,-0.0741 -0.13233,-0.43521 -0.29132,-0.36117 -0.47011,-0.46082 -0.39729,-0.22152 0.0727,0.23936 0.31112,0.53485 0.52965,0.65668 z m 2.06783,3.10119 c 0.21848,0.12191 0.15893,-0.074 -0.13235,-0.4352 -0.29131,-0.36114 -0.4701,-0.46082 -0.39728,-0.22152 0.0727,0.23934 0.31112,0.53486 0.52966,0.65666 z m 15.92574,-10.81305 c 0.0932,0.24999 0.27109,0.26907 0.41527,0.0437 0.13861,-0.21613 0.17862,-0.58983 0.0895,-0.83034 -0.0932,-0.24999 -0.27112,-0.26908 -0.41528,-0.0437 -0.13862,0.21616 -0.17863,0.58985 -0.0895,0.83037 z m -35.75887,28.8694 c 0.38766,0.16424 0.82307,0.20323 0.96754,0.0866 0.16898,-0.13627 0.0114,-0.31839 -0.44218,-0.51046 -0.38766,-0.16425 -0.82307,-0.20324 -0.96754,-0.0866 -0.16898,0.13627 -0.0114,0.31839 0.44217,0.51045 z m 35.74075,-26.60366 c 0.0835,0.44049 0.13974,2.83384 0.125,5.31857 -0.0152,2.48471 0.0898,4.42358 0.23246,4.30855 0.14252,-0.11508 0.24754,-1.02887 0.23346,-2.03071 -0.0143,-1.00189 -0.002,-3.30415 0.0272,-5.11616 0.0293,-1.81201 -0.0179,-3.38352 -0.10483,-3.49225 -0.32814,-0.41004 -0.65891,0.24262 -0.51309,1.01202 z m -33.03994,27.25377 c 0.36033,0.0728 0.66564,0.0346 0.67842,-0.0848 0.0346,-0.32914 -0.73684,-0.5289 -1.05426,-0.2729 -0.17421,0.14047 -0.0325,0.27515 0.37583,0.35768 z m 2.44874,0.95715 c 0.38752,0.0415 0.44154,-0.0506 0.20305,-0.34624 -0.42113,-0.52216 -1.05922,-0.59049 -0.87393,-0.0936 0.0786,0.2108 0.38052,0.40873 0.67087,0.43979 z m 19.06315,-13.68506 c 0.25285,0.1419 0.26481,0.0301 0.0306,-0.28671 -0.21191,-0.28611 -0.39914,-0.39115 -0.41602,-0.23349 -0.0165,0.15771 0.15654,0.39175 0.38537,0.52012 z m -17.42886,14.01357 c 0.40429,0.17122 0.74743,0.19552 0.76261,0.0539 0.0409,-0.39124 -0.89909,-0.84807 -1.21754,-0.59117 -0.19427,0.15667 -0.0548,0.32143 0.45486,0.53732 z m 1.79119,0.63282 c 0.10222,0.12682 0.48207,0.23431 0.84363,0.23974 0.71399,0.01 0.69895,-0.11804 -0.0659,-0.56172 -0.52355,-0.30365 -1.09246,-0.0681 -0.77776,0.32201 z m 2.73275,0.88376 c 0.60562,0.22688 1.18002,0.34886 1.27647,0.27107 0.0965,-0.0778 0.47076,0.0593 0.83175,0.30463 0.36222,0.2462 0.60228,0.26032 0.53569,0.0316 -0.13767,-0.47298 -3.1338,-1.51282 -3.50236,-1.21553 -0.13341,0.10763 0.25289,0.38129 0.85846,0.60824 z m 24.42025,-17.73535 c -0.0143,1.02098 0.44084,0.84411 0.4999,-0.19427 0.0286,-0.50137 -0.0703,-0.81314 -0.21934,-0.69284 -0.14915,0.12034 -0.27544,0.51951 -0.28055,0.8871 z m 0.0159,6.19069 c 0.34944,0.037 0.57307,-3.81893 0.24625,-4.24485 -0.11266,-0.14756 -0.2856,0.73997 -0.38366,1.97163 -0.0978,1.23171 -0.0361,2.25465 0.13741,2.27322 z m -7.6753,2.57804 c 0.17478,0.2167 0.43601,0.29862 0.58048,0.18211 0.14444,-0.11653 0.11971,-0.38917 -0.0551,-0.60587 -0.1748,-0.21669 -0.43601,-0.29863 -0.58048,-0.18212 -0.14444,0.11654 -0.11961,0.38918 0.0552,0.60588 z m 7.21896,-0.0534 c -0.15359,0.83198 0.0719,1.32628 0.46156,1.012 0.13465,-0.10859 0.20926,-0.78929 0.16578,-1.51268 -0.0767,-1.27849 -0.33746,-1.07041 -0.62722,0.50089 z m -8.10248,11.69642 c 6.74528,2.50476 7.76018,2.7954 7.15911,2.05018 -0.19123,-0.23708 -0.48361,-0.41393 -0.64979,-0.39299 -0.16615,0.021 -2.23729,-0.68003 -4.60249,-1.55771 -2.36519,-0.87771 -4.2413,-1.4369 -4.1689,-1.24319 0.0723,0.19394 1.09024,0.70859 2.26209,1.1437 z m 8.00695,-8.22562 c 0.0144,1.17411 0.31233,1.88112 0.53101,1.25991 0.0691,-0.19624 0.0924,-0.90942 0.0519,-1.58485 -0.0911,-1.51818 -0.60193,-1.23343 -0.58289,0.32494 z m -11.73042,9.74443 c 0.38755,0.0415 0.44153,-0.0506 0.20315,-0.3462 -0.17867,-0.22152 -0.48057,-0.41943 -0.67088,-0.43981 -0.1903,-0.0203 -0.28168,0.13543 -0.20305,0.34622 0.0786,0.21081 0.38048,0.40874 0.67085,0.43982 z m 11.61521,-6.89189 c 0.0272,0.2165 0.1677,0.29829 0.31218,0.18174 0.14444,-0.11653 0.24039,-0.38898 0.21288,-0.60556 -0.0272,-0.21649 -0.1677,-0.2983 -0.31223,-0.18166 -0.14445,0.11654 -0.24039,0.38898 -0.21289,0.60555 z m -8.4754,8.02832 c 0.29743,0.35349 1.27445,0.57697 1.30431,0.29812 0.0399,-0.37381 -0.94135,-0.91602 -1.23268,-0.68103 -0.12903,0.10404 -0.16127,0.27639 -0.0717,0.38294 z m 5.64113,-3.03258 c 1.19339,1.01327 1.34598,0.95311 0.43799,-0.17263 -0.42725,-0.52971 -0.89207,-0.87015 -1.03294,-0.75656 -0.14714,0.11871 0.10595,0.51397 0.59495,0.92919 z m 2.72519,0.23225 c 0.31026,0.0334 0.60229,-2.1588 0.4112,-3.08721 -0.0843,-0.40901 -0.26297,0.11272 -0.39749,1.15938 -0.1343,1.0467 -0.14063,1.9142 -0.0138,1.92777 z m -6.49602,3.51484 c 0.10223,0.12683 0.48207,0.23431 0.84366,0.23974 0.71398,0.01 0.69896,-0.11803 -0.0659,-0.56171 -0.5235,-0.30373 -1.09246,-0.0681 -0.77776,0.322 z m 45.63721,-33.72197 c 0.11654,0.14444 0.50737,0.0242 0.86853,-0.26698 0.36117,-0.29131 0.56133,-0.64786 0.44485,-0.79231 -0.11655,-0.14444 -0.50737,-0.0243 -0.86855,0.267 -0.36115,0.2913 -0.56133,0.64786 -0.44476,0.79233 z m -1.48257,1.38702 c 0.2236,0.27724 0.82163,-0.0129 0.7759,-0.37641 -0.0276,-0.22 -0.23462,-0.25138 -0.45983,-0.0697 -0.22522,0.18165 -0.36744,0.38247 -0.31611,0.44611 z m -6.86334,7.07883 c 0.11652,0.14444 0.33016,0.16708 0.47451,0.0507 0.14445,-0.11654 0.16709,-0.33018 0.0507,-0.47453 -0.11655,-0.14445 -0.3302,-0.1671 -0.47455,-0.0507 -0.14444,0.11654 -0.16707,0.33015 -0.0507,0.47454 z m -72.47892,59.17773 c 0.23589,-0.0715 0.59401,-0.35313 0.79589,-0.6258 0.20186,-0.27272 0.009,-0.21427 -0.42884,0.12998 -0.43762,0.34436 -0.6029,0.56732 -0.367,0.49587 z m 5.47157,-3.97695 c 0.23934,-0.0727 0.53486,-0.31113 0.65667,-0.52965 0.12192,-0.21849 -0.0741,-0.15895 -0.4352,0.13235 -0.36116,0.2913 -0.46083,0.47011 -0.22153,0.39728 z m 55.89111,-44.64965 c 0.2359,-0.0715 0.59403,-0.35314 0.79592,-0.62582 0.20187,-0.27272 0.009,-0.21429 -0.42886,0.12998 -0.4376,0.34435 -0.60289,0.56733 -0.36699,0.49587 z m -52.79625,42.58425 c 0.23587,-0.0715 0.59399,-0.3531 0.79588,-0.62579 0.20187,-0.27273 0.009,-0.21429 -0.42886,0.12998 -0.43761,0.34436 -0.60289,0.56731 -0.36699,0.49587 z m 50.38146,-40.20298 c 0.23587,-0.0715 0.594,-0.35311 0.79589,-0.62579 0.20187,-0.27272 0.009,-0.21431 -0.42885,0.12997 -0.43761,0.34435 -0.60291,0.56732 -0.36702,0.49588 z m -47.0114,37.92076 c 0.23935,-0.0728 0.53486,-0.31113 0.65667,-0.52965 0.12191,-0.21848 -0.0741,-0.15897 -0.43521,0.13234 -0.36116,0.2913 -0.46081,0.47012 -0.22153,0.39727 z m 31.48821,-25.05991 c 0.22364,0.27721 0.82166,-0.0129 0.77591,-0.37642 -0.0276,-0.22 -0.23458,-0.25139 -0.45983,-0.0697 -0.22523,0.18166 -0.36748,0.38239 -0.31603,0.44616 z m -19.76969,16.47527 c 0.23935,-0.0728 0.53486,-0.31116 0.65668,-0.52967 0.12191,-0.21847 -0.0741,-0.15893 -0.43522,0.13235 -0.36116,0.2913 -0.4608,0.47012 -0.22152,0.39728 z"
       style="fill:#b5b837;fill-opacity:1;stroke-width:1.27545"
       id="path4288"
       inkscape:export-filename="./path4288.svg"
       inkscape:export-xdpi="96"
       inkscape:export-ydpi="96"
       inkscape:transform-center-x="57.363515"
       inkscape:transform-center-y="-70.460201" /></g></svg>
